ffmpeg version N-99335-gdfbea7b210 Copyright (c) 2000-2020 the FFmpeg developers
  built with gcc 9.3-win32 (GCC) 20200320
  configuration: --prefix=/ffbuild/prefix --pkg-config-flags=--static --pkg-config=pkg-config --cross-prefix=x86_64-w64-mingw32- --arch=x86_64 --target-os=mingw32 --enable-gpl --enable-version3 --enable-iconv --enable-zlib --enable-libxml2 --enable-libfreetype --enable-libfribidi --enable-gmp --enable-lzma --enable-fontconfig --enable-libvmaf --enable-vulkan --enable-libvorbis --enable-amf --enable-libaom --enable-avisynth --enable-libdav1d --enable-ffnvcodec --enable-cuda-llvm --enable-libglslang --enable-libass --enable-libbluray --enable-libmp3lame --enable-libopus --enable-libtheora --enable-libvpx --enable-libwebp --enable-libmfx --enable-libopencore-amrnb --enable-libopencore-amrwb --enable-libopenjpeg --enable-librav1e --enable-schannel --enable-sdl2 --enable-libsoxr --enable-libsrt --enable-libsvtav1 --enable-libtwolame --enable-libvidstab --disable-libwavpack --enable-libx264 --enable-libx265 --enable-libxvid --enable-libzimg --extra-cflags=-DLIBTWOLAME_STATIC --extra-cxxflags= --extra-ldflags=-pthread --extra-libs=-lgomp
  libavutil      56. 59.100 / 56. 59.100
  libavcodec     58.106.100 / 58.106.100
  libavformat    58. 58.100 / 58. 58.100
  libavdevice    58. 11.102 / 58. 11.102
  libavfilter     7. 87.100 /  7. 87.100
  libswscale      5.  8.100 /  5.  8.100
  libswresample   3.  8.100 /  3.  8.100
  libpostproc    55.  8.100 / 55.  8.100
Splitting the commandline.
Reading option '-v' ... matched as option 'v' (set logging level) with argument 'debug'.
Reading option '-nostdin' ... matched as option 'stdin' (enable or disable interaction on standard input) with argument 0.
Reading option '-progress' ... matched as option 'progress' (write program-readable progress information) with argument 'C:/Users/willk/AppData/Local/Temp/KritaFFmpegProgress.smZBOo'.
Reading option '-r' ... matched as option 'r' (set frame rate (Hz value, fraction or abbreviation)) with argument '2'.
Reading option '-start_number' ... matched as AVOption 'start_number' with argument '0'.
Reading option '-i' ... matched as input url with argument 'D:/Java/ISU_Project/assets/images/frame%04d.png'.
Reading option '-vf' ... matched as option 'vf' (set video filters) with argument 'palettegen'.
Reading option '-y' ... matched as option 'y' (overwrite output files) with argument '1'.
Reading option 'D:/Java/ISU_Project/assets/images/palette.png' ... matched as output url.
Finished splitting the commandline.
Parsing a group of options: global .
Applying option v (set logging level) with argument debug.
Applying option nostdin (enable or disable interaction on standard input) with argument 0.
Applying option progress (write program-readable progress information) with argument C:/Users/willk/AppData/Local/Temp/KritaFFmpegProgress.smZBOo.
[file @ 000002b59f354d80] Setting default whitelist 'file,crypto,data'
Applying option y (overwrite output files) with argument 1.
Successfully parsed a group of options.
Parsing a group of options: input url D:/Java/ISU_Project/assets/images/frame%04d.png.
Applying option r (set frame rate (Hz value, fraction or abbreviation)) with argument 2.
Successfully parsed a group of options.
Opening an input file: D:/Java/ISU_Project/assets/images/frame%04d.png.
[image2 @ 000002b59f395d40] Opening 'D:/Java/ISU_Project/assets/images/frame0000.png' for reading
[file @ 000002b59db89780] Setting default whitelist 'file,crypto,data'
[AVIOContext @ 000002b59db89900] Statistics: 3413 bytes read, 0 seeks
[image2 @ 000002b59f395d40] Opening 'D:/Java/ISU_Project/assets/images/frame0001.png' for reading
[file @ 000002b59db89780] Setting default whitelist 'file,crypto,data'
[AVIOContext @ 000002b59db89900] Statistics: 3461 bytes read, 0 seeks
Input #0, image2, from 'D:/Java/ISU_Project/assets/images/frame%04d.png':
  Duration: 00:00:00.08, start: 0.000000, bitrate: N/A
    Stream #0:0, 2, 1/25: Video: png, 1 reference frame, rgba(pc), 50x31 [SAR 3937:3937 DAR 50:31], 0/1, 25 tbr, 25 tbn, 25 tbc
Successfully opened the file.
Parsing a group of options: output url D:/Java/ISU_Project/assets/images/palette.png.
Applying option vf (set video filters) with argument palettegen.
Successfully parsed a group of options.
Opening an output file: D:/Java/ISU_Project/assets/images/palette.png.
Successfully opened the file.
detected 8 logical cores
Stream mapping:
  Stream #0:0 -> #0:0 (png (native) -> png (native))
cur_dts is invalid st:0 (0) [init:0 i_done:0 finish:0] (this is harmless if it occurs once at the start per stream)
    Last message repeated 2 times
[graph 0 input from stream 0:0 @ 000002b59f3af580] Setting 'video_size' to value '50x31'
[graph 0 input from stream 0:0 @ 000002b59f3af580] Setting 'pix_fmt' to value '26'
[graph 0 input from stream 0:0 @ 000002b59f3af580] Setting 'time_base' to value '1/2'
[graph 0 input from stream 0:0 @ 000002b59f3af580] Setting 'pixel_aspect' to value '3937/3937'
[graph 0 input from stream 0:0 @ 000002b59f3af580] Setting 'frame_rate' to value '2/1'
[graph 0 input from stream 0:0 @ 000002b59f3af580] w:50 h:31 pixfmt:rgba tb:1/2 fr:2/1 sar:3937/3937
[format @ 000002b59f3afb40] Setting 'pix_fmts' to value 'rgb24|rgba|rgb48be|rgba64be|pal8|gray|ya8|gray16be|ya16be|monob'
[auto_scaler_0 @ 000002b59f833d40] Setting 'flags' to value 'bicubic'
[auto_scaler_0 @ 000002b59f833d40] w:iw h:ih flags:'bicubic' interl:0
[Parsed_palettegen_0 @ 000002b59f3ae380] auto-inserting filter 'auto_scaler_0' between the filter 'graph 0 input from stream 0:0' and the filter 'Parsed_palettegen_0'
[auto_scaler_1 @ 000002b59f3b9d00] Setting 'flags' to value 'bicubic'
[auto_scaler_1 @ 000002b59f3b9d00] w:iw h:ih flags:'bicubic' interl:0
[format @ 000002b59f3afb40] auto-inserting filter 'auto_scaler_1' between the filter 'Parsed_palettegen_0' and the filter 'format'
[AVFilterGraph @ 000002b59f39fc40] query_formats: 4 queried, 1 merged, 2 already done, 0 delayed
[auto_scaler_1 @ 000002b59f3b9d00] picking rgba out of 10 ref:bgra alpha:1
[swscaler @ 000002b59f3c2580] Forcing full internal H chroma due to input having non subsampled chroma
[auto_scaler_0 @ 000002b59f833d40] w:50 h:31 fmt:rgba sar:3937/3937 -> w:50 h:31 fmt:bgra sar:1/1 flags:0x4
[swscaler @ 000002b59f3d9f80] Forcing full internal H chroma due to input having non subsampled chroma
[auto_scaler_1 @ 000002b59f3b9d00] w:16 h:16 fmt:bgra sar:1/1 -> w:16 h:16 fmt:rgba sar:1/1 flags:0x4
Output #0, image2, to 'D:/Java/ISU_Project/assets/images/palette.png':
  Metadata:
    encoder         : Lavf58.58.100
    Stream #0:0, 0, 1/2: Video: png, 1 reference frame, rgba, 16x16 [SAR 1:1 DAR 1:1], 0/1, q=2-31, 200 kb/s, 2 fps, 2 tbn, 2 tbc
    Metadata:
      encoder         : Lavc58.106.100 png
cur_dts is invalid st:0 (0) [init:1 i_done:0 finish:0] (this is harmless if it occurs once at the start per stream)
    Last message repeated 1 times
[Parsed_palettegen_0 @ 000002b59f3ae380] 255(+1) colors generated out of 553 colors; ratio=0.461121
[Parsed_palettegen_0 @ 000002b59f3ae380] Dupped color: FF5B83E1
[Parsed_palettegen_0 @ 000002b59f3ae380] Dupped color: FFC0FDFD
[Parsed_palettegen_0 @ 000002b59f3ae380] Dupped color: FFC66913
cur_dts is invalid st:0 (0) [init:1 i_done:0 finish:0] (this is harmless if it occurs once at the start per stream)
Clipping frame in rate conversion by 0.000008
cur_dts is invalid st:0 (0) [init:1 i_done:0 finish:0] (this is harmless if it occurs once at the start per stream)
[out_0_0 @ 000002b59f3af980] EOF on sink link out_0_0:default.
No more output streams to write to, finishing.
[image2 @ 000002b59db88c40] Opening 'D:/Java/ISU_Project/assets/images/palette.png' for writing
[file @ 000002b59f3d8e00] Setting default whitelist 'file,crypto,data'
[AVIOContext @ 000002b59f3d7c40] Statistics: 0 seeks, 1 writeouts
frame=    1 fps=0.0 q=-0.0 Lsize=N/A time=00:00:00.50 bitrate=N/A speed=28.3x    
[AVIOContext @ 000002b59f395bc0] Statistics: 0 seeks, 1 writeouts
video:1kB audio:0kB subtitle:0kB other streams:0kB global headers:0kB muxing overhead: unknown
Input file #0 (D:/Java/ISU_Project/assets/images/frame%04d.png):
  Input stream #0:0 (video): 2 packets read (6874 bytes); 2 frames decoded; 
  Total: 2 packets (6874 bytes) demuxed
Output file #0 (D:/Java/ISU_Project/assets/images/palette.png):
  Output stream #0:0 (video): 1 frames encoded; 1 packets muxed (955 bytes); 
  Total: 1 packets (955 bytes) muxed
2 frames successfully decoded, 0 decoding errors
